HIERARCHY
ROOT root
{
	OFFSET 0.000000 0.000000 0.000000
	CHANNELS 6 Xposition Yposition Zposition Zrotation Yrotation Xrotation
	JOINT lhip
	{
		OFFSET 0.058581 -0.082280 -0.017664
		CHANNELS 3 Zrotation Yrotation Xrotation
		JOINT lknee
		{
			OFFSET 0.043451 -0.386469 0.008037
			CHANNELS 3 Zrotation Yrotation Xrotation
			JOINT lankle
			{
				OFFSET -0.014790 -0.426874 -0.037428
				CHANNELS 3 Zrotation Yrotation Xrotation
				JOINT ltoe
				{
					OFFSET 0.041054 -0.060286 0.122042
					CHANNELS 3 Zrotation Yrotation Xrotation
					End Site
					{
						OFFSET 0.000000 0.000000 0.000000
					}
				}
			}
		}
	}
	JOINT rhip
	{
		OFFSET -0.060310 -0.090513 -0.013543
		CHANNELS 3 Zrotation Yrotation Xrotation
		JOINT rknee
		{
			OFFSET -0.043257 -0.383688 -0.004843
			CHANNELS 3 Zrotation Yrotation Xrotation
			JOINT rankle
			{
				OFFSET 0.019056 -0.420046 -0.034562
				CHANNELS 3 Zrotation Yrotation Xrotation
				JOINT rtoe
				{
					OFFSET -0.034840 -0.062106 0.130323
					CHANNELS 3 Zrotation Yrotation Xrotation
					End Site
					{
						OFFSET 0.000000 0.000000 0.000000
					}
				}
			}
		}
	}
	JOINT lowerback
	{
		OFFSET 0.004439 0.124404 -0.038385
		CHANNELS 3 Zrotation Yrotation Xrotation
		JOINT upperback
		{
			OFFSET 0.004488 0.137956 0.026820
			CHANNELS 3 Zrotation Yrotation Xrotation
			JOINT chest
			{
				OFFSET -0.002265 0.056032 0.002855
				CHANNELS 3 Zrotation Yrotation Xrotation
				JOINT lowerneck
				{
					OFFSET -0.013390 0.211636 -0.033468
					CHANNELS 3 Zrotation Yrotation Xrotation
					JOINT upperneck
					{
						OFFSET 0.010113 0.088937 0.050410
						CHANNELS 3 Zrotation Yrotation Xrotation
						End Site
						{
							OFFSET 0.000000 0.000000 0.000000
						}
					}
				}
				JOINT lclavicle
				{
					OFFSET 0.071702 0.114000 -0.018898
					CHANNELS 3 Zrotation Yrotation Xrotation
					JOINT lshoulder
					{
						OFFSET 0.122921 0.045205 -0.019046
						CHANNELS 3 Zrotation Yrotation Xrotation
						JOINT lelbow
						{
							OFFSET 0.255332 -0.015649 -0.022946
							CHANNELS 3 Zrotation Yrotation Xrotation
							JOINT lwrist
							{
								OFFSET 0.265709 0.012698 -0.007375
								CHANNELS 3 Zrotation Yrotation Xrotation
								End Site
								{
									OFFSET 0.000000 0.000000 0.000000
								}
							}
						}
					}
				}
				JOINT rclavicle
				{
					OFFSET -0.082954 0.112472 -0.023707
					CHANNELS 3 Zrotation Yrotation Xrotation
					JOINT rshoulder
					{
						OFFSET -0.113228 0.046853 -0.008472
						CHANNELS 3 Zrotation Yrotation Xrotation
						JOINT relbow
						{
							OFFSET -0.260127 -0.014369 -0.031269
							CHANNELS 3 Zrotation Yrotation Xrotation
							JOINT rwrist
							{
								OFFSET -0.269108 0.006794 -0.006027
								CHANNELS 3 Zrotation Yrotation Xrotation
								End Site
								{
									OFFSET 0.000000 0.000000 0.000000
								}
							}
						}
					}
				}
			}
		}
	}
}
MOTION
Frames: 14
Frame Time: 0.033333
0.124346 -0.809827 0.927055 135.318141 0.314385 88.033438 7.135380 -2.796705 -16.570066 -12.711901 -10.848956 36.038447 2.546280 7.357883 -28.288825 0.000000 -0.000000 0.000000 2.117005 7.964911 -19.143187 12.340807 8.517994 67.869339 8.524933 7.199632 -18.881237 0.000000 -0.000000 0.000000 -7.960336 0.234832 29.086593 1.105390 -5.302929 2.843837 -1.268501 -3.405375 2.925327 1.633314 6.980701 -12.976467 7.296463 -5.285987 -11.071625 -20.080919 -4.958986 0.861486 -41.143485 -6.632452 8.677803 10.925022 -50.639536 2.337461 2.911199 -13.242048 -12.383489 21.945713 -0.266614 0.008941 56.058687 -9.452646 14.429122 -7.442764 47.825612 9.596432 8.198023 9.141413 -13.062977 
0.141371 -0.793413 0.933303 136.133348 1.155855 88.037598 7.581741 -2.131600 -14.056164 -12.259684 -12.662832 34.343521 1.964719 7.028488 -28.697075 0.000000 -0.000000 0.000000 1.985864 8.430037 -21.920284 10.471938 6.620172 63.668552 7.910018 4.831344 -20.535985 0.000000 -0.000000 0.000000 -7.843583 -1.145116 29.734031 1.260150 -5.416633 2.177388 -0.770748 -3.947606 3.176656 1.281681 7.814283 -12.938658 7.174077 -4.165510 -11.163611 -19.274224 -5.737252 0.540141 -41.263639 -9.630591 7.947973 13.874394 -51.887911 -1.613182 6.212264 -13.130318 -13.555713 21.559855 -0.478442 -0.226085 56.341363 -9.780082 14.434227 -8.010988 47.643095 9.339229 6.824232 8.865739 -12.537098 
0.159936 -0.777878 0.941520 136.694021 1.927726 88.366648 8.281149 -1.593120 -11.209372 -11.514247 -14.338040 31.412358 1.017889 6.684548 -28.498536 0.000000 -0.000000 0.000000 1.749056 9.413779 -23.956595 8.793558 6.154594 57.079983 7.660204 3.419952 -21.756102 0.000000 -0.000000 0.000000 -7.659332 -2.571032 29.849463 1.460017 -5.485911 1.776772 -0.324525 -4.162692 3.244148 0.996877 9.047634 -13.003778 6.727063 -3.159653 -10.990746 -18.231168 -5.939187 0.048970 -41.266668 -12.163588 7.691629 16.122866 -53.953940 -4.533036 8.465269 -13.187945 -14.961683 21.101889 -0.918714 -0.311491 56.660660 -9.963445 14.741350 -8.429977 47.564338 9.292615 5.605830 8.653283 -12.258525 
0.180379 -0.763318 0.950521 136.650155 2.382982 89.083834 9.022354 -1.033970 -8.189006 -10.595695 -15.548698 27.512036 -0.069066 6.404393 -27.908052 0.000000 -0.000000 0.000000 1.257865 10.645606 -25.534223 7.603156 7.381684 48.995096 8.036613 3.375133 -22.336360 0.000000 -0.000000 0.000000 -7.662681 -3.483065 29.290684 1.670288 -5.376725 1.594008 0.183666 -4.283375 3.148705 0.733715 10.638487 -13.193047 6.129613 -2.000674 -10.752118 -17.252907 -5.625938 -0.375918 -41.037863 -14.047363 7.776744 18.415349 -56.837756 -7.132435 9.013740 -13.616460 -16.362837 20.777324 -1.649100 -0.268653 56.687005 -10.051982 15.299604 -8.392121 47.628019 9.593405 5.544117 8.532360 -12.365210 
0.200571 -0.748765 0.958832 136.985261 2.612452 90.251077 9.438983 -0.758677 -5.832834 -9.370721 -16.499270 23.668169 -1.104805 5.969242 -27.006766 0.000000 -0.000000 0.000000 0.440636 10.645411 -27.211452 6.096481 8.535445 40.600368 8.670307 3.171098 -22.055744 0.000000 -0.000000 0.000000 -7.178300 -4.504367 28.528549 1.838084 -5.392027 1.032267 0.614874 -4.495598 3.128965 0.398972 12.033877 -13.640523 5.374346 -0.398987 -10.591437 -16.594450 -4.793002 -0.686176 -40.840572 -15.516202 7.987188 20.549261 -60.078057 -9.251200 8.967801 -14.302734 -17.770675 20.493061 -2.676859 -0.305918 56.372903 -10.067007 15.887443 -7.866954 47.715477 9.931207 6.211789 8.509555 -12.598341 
0.221470 -0.734533 0.965859 137.581614 2.583083 91.407214 9.664343 -0.179581 -3.908535 -8.259179 -17.307772 20.520465 -2.053025 5.195151 -26.022608 0.000000 -0.000000 0.000000 -0.211055 9.377500 -28.752466 4.022101 8.166683 33.484428 9.114955 2.279251 -21.088810 0.000000 -0.000000 0.000000 -6.430993 -5.401160 27.996561 1.957975 -5.548109 0.187163 1.079498 -4.797883 3.047227 -0.012906 12.598120 -13.693222 4.255054 1.560680 -10.776089 -16.442224 -3.752289 -0.721067 -40.522628 -16.304517 7.964841 22.420723 -63.363360 -10.730904 9.199491 -14.923916 -18.859065 20.184368 -3.587295 -0.272112 56.033258 -10.109339 16.160716 -7.145488 47.618597 10.267301 6.997962 8.436854 -12.699998 
0.243906 -0.720923 0.970261 138.424729 2.391889 92.417888 10.051807 0.538808 -2.538751 -7.790023 -18.023263 18.677882 -2.958899 4.287360 -25.251839 0.000000 -0.000000 0.000000 -0.642368 8.202361 -29.897514 2.253097 6.790537 28.585375 9.241318 1.082860 -20.039115 0.000000 -0.000000 0.000000 -5.725369 -6.292419 27.495650 2.168439 -5.731230 -0.350973 1.471697 -5.035806 2.970690 -0.537623 13.464229 -14.456678 3.269213 3.477868 -11.074842 -16.590915 -2.724077 -0.636677 -40.229773 -16.428817 7.863575 24.482317 -66.196298 -12.364861 9.643919 -15.477350 -19.805388 20.309282 -4.218445 -0.289138 55.430003 -10.092524 16.355960 -6.689314 47.401479 10.434580 7.667623 8.333284 -12.679441 
0.267419 -0.707339 0.970332 139.721998 1.954272 92.992950 10.308367 0.867311 -1.855302 -8.030702 -18.780144 19.026075 -3.665731 3.659490 -25.107224 0.000000 -0.000000 0.000000 -1.299077 7.865018 -30.243357 1.392910 5.582726 26.219818 9.263268 0.029214 -18.978763 0.000000 -0.000000 0.000000 -5.048849 -7.265823 27.199041 2.520693 -5.980629 -0.286152 1.708548 -5.159549 2.734556 -1.167479 14.198825 -15.478338 2.143534 4.929274 -11.527319 -16.885643 -2.020357 -0.368604 -40.118152 -16.079783 7.724985 26.184678 -68.030607 -13.786057 9.733040 -15.782869 -20.888414 20.631745 -4.576128 -0.254200 54.834793 -9.961182 16.458090 -6.687272 47.157298 10.198935 7.958990 8.219604 -12.578483 
0.291709 -0.692917 0.965633 141.391964 1.027830 92.949893 10.013101 0.800145 -2.285333 -9.229123 -19.053683 22.895194 -3.815972 3.231957 -25.649175 0.000000 -0.000000 0.000000 -2.269961 7.539130 -29.853039 1.136714 4.198819 27.092357 8.831828 -1.332986 -17.076089 0.000000 -0.000000 0.000000 -4.533343 -7.918136 27.383289 2.971485 -6.262714 -0.207111 1.921619 -5.283463 2.512613 -1.960013 14.144523 -16.269805 0.813271 6.191273 -12.017426 -17.364940 -1.848231 0.171641 -40.315667 -15.383774 7.510371 25.725083 -68.673515 -12.957946 9.554957 -15.832200 -21.739478 20.889255 -4.744558 -0.129426 54.409634 -9.999605 16.291629 -7.005156 46.889225 9.630019 8.013023 8.140906 -12.347949 
0.316208 -0.677995 0.957348 143.122677 0.017448 92.346059 9.723122 0.430068 -4.217178 -11.538033 -18.460323 30.693449 -4.038141 2.515040 -25.517394 0.000000 -0.000000 0.000000 -3.003457 6.807650 -29.712752 1.545046 2.777535 31.300928 6.713618 -2.099354 -16.325885 0.000000 -0.000000 0.000000 -3.792342 -7.956212 27.971630 3.510774 -6.473599 -0.025373 2.107086 -5.426829 2.370163 -2.991868 13.886632 -16.914417 -0.727468 7.247851 -12.864651 -18.160552 -2.383509 0.808158 -40.613581 -14.209367 7.371469 22.876157 -68.265042 -9.351109 9.343010 -15.559118 -21.896682 21.237891 -4.452775 0.274857 54.062286 -10.037044 15.561505 -7.813472 46.523243 8.814346 7.965603 8.066082 -12.234581 
0.339845 -0.663316 0.947857 144.475711 -0.470499 91.326072 10.012434 -0.434787 -6.856342 -14.252434 -17.226863 40.117806 -4.993541 1.587458 -23.449523 0.000000 -0.000000 0.000000 -3.266211 6.749732 -29.563377 2.342022 1.299255 36.141061 4.288503 -2.424886 -17.855220 0.000000 -0.000000 0.000000 -2.470800 -7.667509 28.744120 4.091150 -6.407206 0.808693 2.239444 -5.300888 1.993719 -4.193373 13.919310 -17.385113 -2.455049 8.019516 -14.023689 -18.989076 -3.385834 1.393461 -41.409877 -12.553399 7.719132 18.894077 -66.803436 -4.338683 9.300593 -14.928942 -21.238135 21.474820 -3.396105 1.178405 53.801663 -9.580284 14.430076 -9.131488 45.956077 7.784856 7.496994 7.839599 -12.413990 
0.361694 -0.648635 0.939362 145.070107 -0.794659 90.299423 10.217425 -1.263931 -9.432786 -16.617555 -15.699451 48.438062 -5.337280 0.601237 -21.249178 0.000000 -0.000000 0.000000 -3.080427 6.342926 -28.763079 2.966959 0.520052 39.693193 2.445137 -2.306972 -20.467741 0.000000 -0.000000 0.000000 -1.160031 -6.976286 29.281174 4.610747 -6.032664 1.801346 2.485566 -4.793150 1.598709 -5.298875 14.105905 -17.359348 -4.102327 8.709773 -14.716542 -19.669731 -4.333398 1.777339 -43.177683 -10.609518 8.538642 13.811707 -64.155570 1.883374 9.284532 -14.150983 -20.291517 21.457389 -1.920477 2.218444 53.270649 -8.633889 13.242830 -10.334258 45.215402 6.877355 6.923504 7.554979 -12.221150 
0.381811 -0.633603 0.934195 144.923322 -1.209909 89.527334 9.956662 -1.222973 -12.077767 -18.272602 -13.949765 54.840453 -5.170181 -0.380383 -20.824844 0.000000 -0.000000 0.000000 -2.719558 5.338912 -27.499356 3.453180 0.734852 41.776409 1.297811 -1.802358 -22.608754 0.000000 -0.000000 0.000000 -0.211064 -5.776632 29.421042 5.082284 -5.376629 2.378742 2.915811 -4.036172 1.538651 -6.050311 14.457366 -16.757732 -5.799413 9.524125 -14.677529 -20.608297 -4.784699 2.017146 -45.508688 -8.531842 9.323774 8.393138 -60.398922 8.290431 8.319615 -13.530723 -19.256501 21.571376 -0.663011 3.026829 52.045730 -7.244520 12.121158 -11.515314 44.330782 5.796280 6.765805 7.380678 -11.123713 
0.400725 -0.618389 0.933522 143.970613 -1.553784 88.912742 9.466157 -0.414464 -14.429297 -18.332687 -11.759176 58.449545 -4.787582 -0.393905 -21.166463 0.000000 -0.000000 0.000000 -2.294287 4.803674 -25.824387 3.870560 1.385800 42.663836 0.754305 -1.166096 -23.864875 0.000000 -0.000000 0.000000 0.579995 -4.291725 29.497802 5.368555 -4.240593 2.426739 3.306988 -3.149729 1.692910 -6.341217 14.856825 -15.758897 -7.351246 10.458146 -14.123271 -21.544127 -4.359235 2.121673 -47.931549 -6.166620 10.011718 3.837303 -56.335117 13.851146 5.780335 -13.045112 -18.398080 21.730658 -0.021781 3.414612 50.650940 -5.516824 11.015016 -12.980464 43.244592 4.110247 6.646981 7.287092 -9.737867 
